<svg xmlns="http://www.w3.org/2000/svg" xmlns:xlink="http://www.w3.org/1999/xlink" width="500" zoomAndPan="magnify" viewBox="0 0 375 374.999991" height="500" preserveAspectRatio="xMidYMid meet" version="1.0"><defs><g/><clipPath id="04fb7fbe6f"><path d="M 346 165.894531 L 352 165.894531 L 352 174 L 346 174 Z M 346 165.894531 " clip-rule="nonzero"/></clipPath><clipPath id="a9f238ea5d"><path d="M 325.34375 169 L 374 169 L 374 214.644531 L 325.34375 214.644531 Z M 325.34375 169 " clip-rule="nonzero"/></clipPath><clipPath id="6c90842fba"><path d="M 101.914062 129.6875 L 142.414062 129.6875 L 142.414062 164.9375 L 101.914062 164.9375 Z M 101.914062 129.6875 " clip-rule="nonzero"/></clipPath><clipPath id="ee71b88b7f"><path d="M 225.28125 129.101562 L 256 129.101562 L 256 165.101562 L 225.28125 165.101562 Z M 225.28125 129.101562 " clip-rule="nonzero"/></clipPath><clipPath id="b5445828a7"><path d="M 255.855469 129.6875 L 279.855469 129.6875 L 279.855469 165.6875 L 255.855469 165.6875 Z M 255.855469 129.6875 " clip-rule="nonzero"/></clipPath><clipPath id="483db1bec4"><path d="M 284.253906 128.515625 L 315 128.515625 L 315 164.515625 L 284.253906 164.515625 Z M 284.253906 128.515625 " clip-rule="nonzero"/></clipPath><clipPath id="5c8efb1f0f"><path d="M 10.867188 176.46875 L 52.867188 176.46875 L 52.867188 213 L 10.867188 213 Z M 10.867188 176.46875 " clip-rule="nonzero"/></clipPath><clipPath id="4648d0893f"><path d="M 56.714844 176.753906 L 87.464844 176.753906 L 87.464844 212.753906 L 56.714844 212.753906 Z M 56.714844 176.753906 " clip-rule="nonzero"/></clipPath><clipPath id="0c6fe9d06b"><path d="M 56.714844 196 L 67 196 L 67 212.753906 L 56.714844 212.753906 Z M 56.714844 196 " clip-rule="nonzero"/></clipPath><clipPath id="0fdaa3e745"><path d="M 92.191406 190 L 122 190 L 122 212.753906 L 92.191406 212.753906 Z M 92.191406 190 " clip-rule="nonzero"/></clipPath><clipPath id="ee9d8cd33a"><path d="M 95 176.753906 L 122.941406 176.753906 L 122.941406 187 L 95 187 Z M 95 176.753906 " clip-rule="nonzero"/></clipPath><clipPath id="0eefeac081"><path d="M 147.0625 130.273438 L 186.0625 130.273438 L 186.0625 165.523438 L 147.0625 165.523438 Z M 147.0625 130.273438 " clip-rule="nonzero"/></clipPath><clipPath id="18deaa719e"><path d="M 147.0625 154 L 157 154 L 157 165.523438 L 147.0625 165.523438 Z M 147.0625 154 " clip-rule="nonzero"/></clipPath><clipPath id="0ad886a33e"><path d="M 130.007812 176.753906 L 160.757812 176.753906 L 160.757812 212.753906 L 130.007812 212.753906 Z M 130.007812 176.753906 " clip-rule="nonzero"/></clipPath><clipPath id="9b5bbbd0a2"><path d="M 164.328125 176.78125 L 188.328125 176.78125 L 188.328125 212.78125 L 164.328125 212.78125 Z M 164.328125 176.78125 " clip-rule="nonzero"/></clipPath><clipPath id="7da6a9e1ef"><path d="M 193.367188 181 L 200 181 L 200 212.988281 L 193.367188 212.988281 Z M 193.367188 181 " clip-rule="nonzero"/></clipPath><clipPath id="7f36cbc95b"><path d="M 193.367188 175.488281 L 202.367188 175.488281 L 202.367188 185 L 193.367188 185 Z M 193.367188 175.488281 " clip-rule="nonzero"/></clipPath><clipPath id="44dc8314ea"><path d="M 316.3125 182 L 323 182 L 323 213.96875 L 316.3125 213.96875 Z M 316.3125 182 " clip-rule="nonzero"/></clipPath><clipPath id="b6277f9d74"><path d="M 316.3125 176.46875 L 325.3125 176.46875 L 325.3125 186 L 316.3125 186 Z M 316.3125 176.46875 " clip-rule="nonzero"/></clipPath><clipPath id="5c2add5702"><path d="M 207.648438 190 L 238.398438 190 L 238.398438 212.753906 L 207.648438 212.753906 Z M 207.648438 190 " clip-rule="nonzero"/></clipPath><clipPath id="1b474f8204"><path d="M 210 176.753906 L 238.398438 176.753906 L 238.398438 187 L 210 187 Z M 210 176.753906 " clip-rule="nonzero"/></clipPath><clipPath id="0917dcf617"><path d="M 242 176.78125 L 272 176.78125 L 272 212.78125 L 242 212.78125 Z M 242 176.78125 " clip-rule="nonzero"/></clipPath><clipPath id="180d616111"><path d="M 275.578125 176.78125 L 310.828125 176.78125 L 310.828125 214.28125 L 275.578125 214.28125 Z M 275.578125 176.78125 " clip-rule="nonzero"/></clipPath></defs><g clip-path="url(#04fb7fbe6f)"><path fill="#ffffff" d="M 348.582031 170.859375 L 348.582031 173 C 348.582031 173.238281 348.667969 173.441406 348.835938 173.609375 C 349.003906 173.777344 349.207031 173.859375 349.445312 173.859375 C 349.679688 173.859375 349.882812 173.777344 350.050781 173.609375 C 350.21875 173.441406 350.304688 173.238281 350.304688 173 L 350.304688 170.859375 C 350.488281 170.792969 350.664062 170.707031 350.828125 170.597656 C 350.992188 170.492188 351.140625 170.363281 351.277344 170.222656 C 351.410156 170.078125 351.527344 169.921875 351.625 169.753906 C 351.722656 169.582031 351.800781 169.402344 351.859375 169.214844 C 351.914062 169.027344 351.949219 168.835938 351.960938 168.640625 C 351.972656 168.441406 351.960938 168.246094 351.925781 168.054688 C 351.890625 167.859375 351.835938 167.675781 351.757812 167.492188 C 351.679688 167.3125 351.582031 167.144531 351.464844 166.988281 C 351.347656 166.828125 351.214844 166.6875 351.0625 166.5625 C 350.914062 166.433594 350.75 166.328125 350.574219 166.238281 C 350.398438 166.152344 350.214844 166.082031 350.023438 166.039062 C 349.832031 165.992188 349.640625 165.96875 349.445312 165.96875 C 349.246094 165.96875 349.054688 165.992188 348.863281 166.039062 C 348.671875 166.082031 348.488281 166.152344 348.3125 166.238281 C 348.136719 166.328125 347.972656 166.433594 347.824219 166.5625 C 347.671875 166.6875 347.539062 166.828125 347.421875 166.988281 C 347.304688 167.144531 347.207031 167.3125 347.128906 167.492188 C 347.050781 167.675781 346.996094 167.859375 346.960938 168.054688 C 346.925781 168.246094 346.914062 168.441406 346.925781 168.640625 C 346.9375 168.835938 346.972656 169.027344 347.027344 169.214844 C 347.085938 169.402344 347.164062 169.582031 347.261719 169.753906 C 347.359375 169.921875 347.476562 170.078125 347.609375 170.222656 C 347.746094 170.363281 347.894531 170.492188 348.058594 170.597656 C 348.222656 170.707031 348.398438 170.792969 348.582031 170.859375 Z M 349.445312 167.703125 C 349.660156 167.707031 349.847656 167.785156 350 167.941406 C 350.152344 168.097656 350.226562 168.285156 350.226562 168.5 C 350.226562 168.71875 350.152344 168.90625 350 169.0625 C 349.847656 169.214844 349.660156 169.296875 349.445312 169.300781 C 349.226562 169.296875 349.039062 169.214844 348.886719 169.0625 C 348.734375 168.90625 348.660156 168.71875 348.660156 168.5 C 348.660156 168.285156 348.734375 168.097656 348.886719 167.941406 C 349.039062 167.785156 349.226562 167.707031 349.445312 167.703125 Z M 349.445312 167.703125 " fill-opacity="1" fill-rule="nonzero"/></g><g clip-path="url(#a9f238ea5d)"><path fill="#ffffff" d="M 371.023438 188.390625 C 370.496094 188.394531 370.015625 188.546875 369.582031 188.847656 C 369.152344 189.152344 368.84375 189.554688 368.664062 190.050781 L 358.605469 190.050781 L 358.605469 186.484375 L 362.847656 186.484375 C 363.371094 186.488281 363.871094 186.371094 364.339844 186.136719 C 364.808594 185.902344 365.199219 185.578125 365.515625 185.160156 L 366.726562 183.578125 C 367.058594 183.71875 367.410156 183.785156 367.773438 183.773438 C 368.136719 183.765625 368.480469 183.679688 368.808594 183.519531 C 369.136719 183.363281 369.414062 183.140625 369.644531 182.863281 C 369.878906 182.582031 370.042969 182.265625 370.136719 181.914062 C 370.230469 181.566406 370.25 181.210938 370.191406 180.851562 C 370.132812 180.492188 370.003906 180.160156 369.804688 179.859375 C 369.601562 179.554688 369.347656 179.308594 369.039062 179.117188 C 368.730469 178.921875 368.394531 178.804688 368.035156 178.753906 C 367.675781 178.707031 367.320312 178.738281 366.972656 178.84375 C 366.625 178.949219 366.3125 179.121094 366.039062 179.359375 C 365.769531 179.601562 365.554688 179.886719 365.40625 180.214844 C 365.257812 180.546875 365.183594 180.894531 365.183594 181.257812 C 365.1875 181.660156 365.28125 182.035156 365.464844 182.390625 L 364.148438 184.117188 C 363.820312 184.546875 363.390625 184.765625 362.847656 184.765625 L 358.605469 184.765625 L 358.605469 183.441406 C 358.597656 183.066406 358.511719 182.707031 358.347656 182.367188 C 358.1875 182.027344 357.960938 181.738281 357.671875 181.496094 C 357.382812 181.253906 357.054688 181.082031 356.695312 180.984375 C 356.332031 180.882812 355.964844 180.863281 355.589844 180.921875 L 355.589844 176.675781 C 355.589844 176.136719 355.808594 175.703125 356.242188 175.378906 L 357.964844 174.058594 C 358.140625 174.148438 358.324219 174.214844 358.515625 174.261719 C 358.707031 174.304688 358.902344 174.328125 359.097656 174.328125 C 359.292969 174.328125 359.488281 174.304688 359.679688 174.257812 C 359.871094 174.214844 360.054688 174.144531 360.226562 174.058594 C 360.402344 173.96875 360.566406 173.863281 360.71875 173.734375 C 360.867188 173.609375 361 173.46875 361.117188 173.308594 C 361.234375 173.152344 361.332031 172.984375 361.410156 172.800781 C 361.488281 172.621094 361.546875 172.433594 361.578125 172.242188 C 361.613281 172.046875 361.625 171.851562 361.613281 171.65625 C 361.601562 171.460938 361.566406 171.269531 361.511719 171.082031 C 361.453125 170.890625 361.378906 170.714844 361.277344 170.542969 C 361.179688 170.371094 361.066406 170.214844 360.929688 170.074219 C 360.792969 169.929688 360.644531 169.804688 360.480469 169.695312 C 360.316406 169.589844 360.144531 169.5 359.957031 169.433594 C 359.773438 169.367188 359.582031 169.320312 359.386719 169.300781 C 359.191406 169.277344 359 169.277344 358.804688 169.300781 C 358.609375 169.320312 358.417969 169.367188 358.234375 169.433594 C 358.046875 169.5 357.875 169.589844 357.710938 169.695312 C 357.546875 169.804688 357.394531 169.929688 357.261719 170.070312 C 357.125 170.214844 357.007812 170.371094 356.910156 170.542969 C 356.8125 170.710938 356.734375 170.890625 356.679688 171.078125 C 356.621094 171.265625 356.589844 171.460938 356.578125 171.65625 C 356.566406 171.851562 356.574219 172.046875 356.609375 172.238281 C 356.644531 172.433594 356.699219 172.621094 356.777344 172.800781 C 355.453125 173.796875 353.792969 174.792969 353.871094 176.675781 L 353.871094 180.921875 L 350.304688 180.921875 L 350.304688 177.910156 C 350.304688 177.675781 350.21875 177.472656 350.050781 177.304688 C 349.882812 177.136719 349.679688 177.050781 349.445312 177.050781 C 349.207031 177.050781 349.003906 177.136719 348.835938 177.304688 C 348.667969 177.472656 348.582031 177.675781 348.582031 177.910156 L 348.582031 180.921875 L 345.015625 180.921875 L 345.015625 176.675781 C 345.019531 176.152344 344.902344 175.65625 344.667969 175.1875 C 344.4375 174.714844 344.109375 174.324219 343.691406 174.007812 L 342.109375 172.800781 C 342.1875 172.621094 342.242188 172.433594 342.277344 172.238281 C 342.308594 172.046875 342.320312 171.851562 342.308594 171.65625 C 342.296875 171.460938 342.261719 171.265625 342.207031 171.078125 C 342.148438 170.890625 342.074219 170.710938 341.972656 170.542969 C 341.875 170.371094 341.757812 170.214844 341.625 170.074219 C 341.488281 169.929688 341.339844 169.804688 341.175781 169.699219 C 341.011719 169.589844 340.835938 169.503906 340.652344 169.433594 C 340.464844 169.367188 340.277344 169.324219 340.082031 169.300781 C 339.886719 169.277344 339.691406 169.277344 339.496094 169.300781 C 339.300781 169.324219 339.109375 169.371094 338.925781 169.4375 C 338.742188 169.503906 338.566406 169.59375 338.402344 169.699219 C 338.238281 169.808594 338.089844 169.933594 337.957031 170.078125 C 337.820312 170.21875 337.703125 170.375 337.605469 170.546875 C 337.507812 170.71875 337.429688 170.894531 337.375 171.085938 C 337.320312 171.273438 337.285156 171.464844 337.273438 171.660156 C 337.261719 171.855469 337.273438 172.050781 337.308594 172.246094 C 337.34375 172.4375 337.398438 172.625 337.476562 172.804688 C 337.554688 172.984375 337.652344 173.15625 337.769531 173.3125 C 337.886719 173.46875 338.019531 173.613281 338.171875 173.738281 C 338.320312 173.863281 338.484375 173.972656 338.660156 174.058594 C 338.835938 174.148438 339.019531 174.214844 339.210938 174.261719 C 339.402344 174.304688 339.59375 174.328125 339.792969 174.328125 C 339.988281 174.328125 340.179688 174.304688 340.371094 174.261719 C 340.5625 174.214844 340.746094 174.148438 340.921875 174.0625 L 342.648438 175.378906 C 343.078125 175.703125 343.296875 176.136719 343.296875 176.675781 L 343.296875 180.921875 C 342.921875 180.863281 342.554688 180.882812 342.191406 180.984375 C 341.832031 181.082031 341.503906 181.253906 341.214844 181.496094 C 340.925781 181.738281 340.703125 182.027344 340.539062 182.367188 C 340.375 182.707031 340.289062 183.066406 340.28125 183.441406 L 340.28125 184.765625 L 336.039062 184.765625 C 335.496094 184.765625 335.0625 184.546875 334.738281 184.113281 L 333.421875 182.390625 C 333.507812 182.214844 333.574219 182.035156 333.617188 181.84375 C 333.664062 181.652344 333.683594 181.460938 333.683594 181.265625 C 333.683594 181.070312 333.660156 180.878906 333.617188 180.6875 C 333.570312 180.5 333.503906 180.316406 333.417969 180.144531 C 333.328125 179.96875 333.222656 179.808594 333.097656 179.660156 C 332.96875 179.507812 332.828125 179.375 332.671875 179.261719 C 332.515625 179.144531 332.347656 179.046875 332.167969 178.96875 C 331.988281 178.894531 331.804688 178.835938 331.613281 178.804688 C 331.417969 178.769531 331.226562 178.757812 331.03125 178.769531 C 330.835938 178.78125 330.644531 178.816406 330.460938 178.871094 C 330.273438 178.925781 330.09375 179.003906 329.925781 179.101562 C 329.757812 179.199219 329.601562 179.316406 329.460938 179.449219 C 329.316406 179.582031 329.191406 179.730469 329.085938 179.894531 C 328.976562 180.058594 328.890625 180.230469 328.824219 180.414062 C 328.757812 180.597656 328.710938 180.785156 328.691406 180.976562 C 328.667969 181.171875 328.667969 181.367188 328.6875 181.558594 C 328.710938 181.753906 328.753906 181.941406 328.820312 182.125 C 328.886719 182.308594 328.976562 182.480469 329.082031 182.644531 C 329.1875 182.808594 329.3125 182.957031 329.453125 183.089844 C 329.597656 183.226562 329.75 183.339844 329.917969 183.441406 C 330.089844 183.539062 330.265625 183.613281 330.453125 183.671875 C 330.640625 183.726562 330.828125 183.761719 331.023438 183.773438 C 331.21875 183.785156 331.414062 183.777344 331.605469 183.742188 C 331.796875 183.710938 331.984375 183.652344 332.164062 183.578125 L 333.371094 185.15625 C 333.683594 185.574219 334.078125 185.902344 334.546875 186.136719 C 335.015625 186.371094 335.515625 186.488281 336.039062 186.484375 L 340.28125 186.484375 L 340.28125 190.050781 L 330.222656 190.050781 C 330.15625 189.867188 330.066406 189.691406 329.960938 189.527344 C 329.851562 189.363281 329.726562 189.214844 329.585938 189.082031 C 329.441406 188.945312 329.285156 188.832031 329.117188 188.730469 C 328.945312 188.632812 328.765625 188.558594 328.578125 188.5 C 328.390625 188.445312 328.199219 188.410156 328.003906 188.398438 C 327.808594 188.386719 327.613281 188.398438 327.421875 188.433594 C 327.226562 188.46875 327.042969 188.523438 326.859375 188.601562 C 326.679688 188.679688 326.511719 188.777344 326.355469 188.894531 C 326.199219 189.011719 326.054688 189.144531 325.929688 189.292969 C 325.804688 189.445312 325.699219 189.605469 325.609375 189.78125 C 325.523438 189.957031 325.453125 190.140625 325.410156 190.332031 C 325.363281 190.523438 325.34375 190.714844 325.34375 190.910156 C 325.34375 191.109375 325.363281 191.300781 325.410156 191.492188 C 325.457031 191.683594 325.523438 191.867188 325.609375 192.039062 C 325.699219 192.214844 325.804688 192.378906 325.929688 192.527344 C 326.058594 192.679688 326.199219 192.8125 326.355469 192.929688 C 326.511719 193.046875 326.683594 193.144531 326.863281 193.222656 C 327.042969 193.300781 327.226562 193.355469 327.421875 193.390625 C 327.613281 193.421875 327.808594 193.433594 328.003906 193.421875 C 328.199219 193.410156 328.390625 193.378906 328.578125 193.320312 C 328.769531 193.265625 328.945312 193.1875 329.117188 193.089844 C 329.285156 192.992188 329.441406 192.875 329.585938 192.742188 C 329.726562 192.605469 329.851562 192.457031 329.960938 192.292969 C 330.066406 192.128906 330.15625 191.957031 330.222656 191.773438 L 340.28125 191.773438 L 340.28125 195.335938 L 336.039062 195.335938 C 335.515625 195.335938 335.019531 195.453125 334.546875 195.6875 C 334.078125 195.917969 333.6875 196.246094 333.371094 196.664062 L 332.164062 198.246094 C 331.828125 198.105469 331.476562 198.039062 331.113281 198.046875 C 330.75 198.058594 330.40625 198.144531 330.078125 198.300781 C 329.753906 198.460938 329.472656 198.679688 329.242188 198.960938 C 329.007812 199.242188 328.84375 199.554688 328.75 199.90625 C 328.65625 200.257812 328.636719 200.613281 328.695312 200.972656 C 328.753906 201.332031 328.882812 201.660156 329.082031 201.964844 C 329.285156 202.265625 329.539062 202.515625 329.847656 202.707031 C 330.15625 202.898438 330.492188 203.019531 330.851562 203.066406 C 331.210938 203.117188 331.566406 203.085938 331.914062 202.980469 C 332.261719 202.875 332.574219 202.703125 332.84375 202.464844 C 333.117188 202.222656 333.332031 201.9375 333.480469 201.605469 C 333.628906 201.277344 333.703125 200.929688 333.703125 200.566406 C 333.699219 200.164062 333.605469 199.785156 333.421875 199.433594 L 334.738281 197.707031 C 335.066406 197.273438 335.496094 197.058594 336.039062 197.058594 L 340.316406 197.058594 C 340.371094 197.402344 340.484375 197.71875 340.664062 198.015625 C 340.84375 198.3125 341.074219 198.5625 341.355469 198.765625 C 341.632812 198.972656 341.941406 199.117188 342.277344 199.199219 C 342.613281 199.28125 342.953125 199.292969 343.296875 199.242188 L 343.296875 203.488281 C 343.296875 204.027344 343.078125 204.460938 342.644531 204.785156 L 340.921875 206.101562 C 340.746094 206.015625 340.566406 205.949219 340.375 205.90625 C 340.183594 205.863281 339.992188 205.839844 339.796875 205.839844 C 339.601562 205.839844 339.410156 205.863281 339.222656 205.910156 C 339.03125 205.957031 338.847656 206.023438 338.675781 206.109375 C 338.5 206.199219 338.339844 206.304688 338.191406 206.429688 C 338.042969 206.554688 337.910156 206.695312 337.792969 206.855469 C 337.675781 207.011719 337.578125 207.179688 337.503906 207.355469 C 337.425781 207.535156 337.371094 207.722656 337.335938 207.914062 C 337.304688 208.105469 337.292969 208.300781 337.304688 208.496094 C 337.316406 208.6875 337.347656 208.878906 337.40625 209.066406 C 337.460938 209.253906 337.539062 209.429688 337.636719 209.601562 C 337.734375 209.769531 337.847656 209.925781 337.980469 210.066406 C 338.117188 210.207031 338.265625 210.332031 338.425781 210.441406 C 338.589844 210.546875 338.761719 210.632812 338.945312 210.699219 C 339.128906 210.765625 339.316406 210.8125 339.511719 210.835938 C 339.707031 210.859375 339.898438 210.859375 340.09375 210.835938 C 340.285156 210.8125 340.476562 210.769531 340.660156 210.703125 C 340.84375 210.636719 341.015625 210.550781 341.179688 210.441406 C 341.339844 210.335938 341.488281 210.210938 341.625 210.070312 C 341.757812 209.929688 341.875 209.773438 341.972656 209.605469 C 342.070312 209.4375 342.148438 209.257812 342.203125 209.070312 C 342.261719 208.886719 342.292969 208.695312 342.304688 208.5 C 342.316406 208.304688 342.308594 208.113281 342.273438 207.917969 C 342.242188 207.726562 342.1875 207.542969 342.109375 207.363281 C 343.429688 206.367188 345.097656 205.367188 345.015625 203.488281 L 345.015625 199.242188 L 348.582031 199.242188 L 348.582031 209.300781 C 348.398438 209.371094 348.222656 209.457031 348.0625 209.566406 C 347.898438 209.671875 347.746094 209.796875 347.613281 209.941406 C 347.480469 210.082031 347.363281 210.238281 347.265625 210.410156 C 347.167969 210.578125 347.089844 210.757812 347.03125 210.945312 C 346.976562 211.132812 346.941406 211.324219 346.929688 211.519531 C 346.921875 211.714844 346.929688 211.910156 346.964844 212.105469 C 347 212.296875 347.054688 212.484375 347.132812 212.664062 C 347.210938 212.84375 347.308594 213.011719 347.425781 213.167969 C 347.542969 213.328125 347.675781 213.46875 347.824219 213.59375 C 347.976562 213.71875 348.140625 213.828125 348.3125 213.914062 C 348.488281 214.003906 348.671875 214.070312 348.863281 214.113281 C 349.054688 214.160156 349.246094 214.183594 349.445312 214.183594 C 349.640625 214.183594 349.832031 214.160156 350.023438 214.113281 C 350.214844 214.070312 350.398438 214.003906 350.574219 213.914062 C 350.746094 213.828125 350.910156 213.71875 351.0625 213.59375 C 351.210938 213.46875 351.34375 213.328125 351.460938 213.167969 C 351.578125 213.011719 351.675781 212.84375 351.753906 212.664062 C 351.832031 212.484375 351.886719 212.296875 351.921875 212.105469 C 351.957031 211.910156 351.964844 211.714844 351.957031 211.519531 C 351.945312 211.324219 351.910156 211.132812 351.855469 210.945312 C 351.796875 210.757812 351.71875 210.578125 351.621094 210.410156 C 351.523438 210.238281 351.410156 210.082031 351.273438 209.941406 C 351.140625 209.796875 350.988281 209.671875 350.828125 209.566406 C 350.664062 209.457031 350.488281 209.371094 350.304688 209.300781 L 350.304688 199.242188 L 353.871094 199.242188 L 353.871094 203.488281 C 353.867188 204.011719 353.984375 204.507812 354.21875 204.976562 C 354.449219 205.445312 354.777344 205.839844 355.195312 206.15625 L 356.777344 207.363281 C 356.699219 207.542969 356.644531 207.730469 356.609375 207.921875 C 356.578125 208.117188 356.566406 208.3125 356.578125 208.507812 C 356.589844 208.703125 356.625 208.894531 356.679688 209.085938 C 356.738281 209.273438 356.816406 209.453125 356.914062 209.621094 C 357.011719 209.792969 357.128906 209.949219 357.261719 210.089844 C 357.398438 210.234375 357.546875 210.359375 357.710938 210.464844 C 357.875 210.574219 358.050781 210.660156 358.234375 210.726562 C 358.421875 210.796875 358.609375 210.839844 358.804688 210.863281 C 359 210.886719 359.195312 210.882812 359.390625 210.863281 C 359.585938 210.839844 359.777344 210.792969 359.960938 210.726562 C 360.144531 210.660156 360.320312 210.570312 360.484375 210.460938 C 360.648438 210.355469 360.796875 210.230469 360.929688 210.085938 C 361.066406 209.941406 361.183594 209.785156 361.28125 209.617188 C 361.378906 209.445312 361.457031 209.265625 361.511719 209.078125 C 361.566406 208.890625 361.601562 208.699219 361.613281 208.503906 C 361.625 208.304688 361.613281 208.113281 361.578125 207.917969 C 361.542969 207.722656 361.488281 207.539062 361.410156 207.355469 C 361.332031 207.175781 361.234375 207.007812 361.117188 206.851562 C 361 206.691406 360.867188 206.550781 360.714844 206.425781 C 360.566406 206.296875 360.402344 206.191406 360.226562 206.101562 C 360.050781 206.015625 359.867188 205.949219 359.675781 205.902344 C 359.484375 205.859375 359.292969 205.835938 359.097656 205.835938 C 358.898438 205.835938 358.707031 205.859375 358.515625 205.902344 C 358.324219 205.949219 358.140625 206.015625 357.964844 206.101562 L 356.238281 204.785156 C 355.808594 204.460938 355.589844 204.027344 355.589844 203.488281 L 355.589844 199.242188 C 355.933594 199.292969 356.273438 199.28125 356.609375 199.199219 C 356.945312 199.117188 357.253906 198.972656 357.53125 198.765625 C 357.8125 198.5625 358.042969 198.3125 358.222656 198.015625 C 358.402344 197.71875 358.515625 197.402344 358.570312 197.058594 L 362.847656 197.058594 C 363.390625 197.058594 363.824219 197.277344 364.148438 197.710938 L 365.464844 199.433594 C 365.378906 199.609375 365.3125 199.789062 365.269531 199.980469 C 365.222656 200.167969 365.203125 200.363281 365.203125 200.558594 C 365.203125 200.753906 365.226562 200.945312 365.269531 201.136719 C 365.316406 201.324219 365.382812 201.507812 365.472656 201.679688 C 365.558594 201.855469 365.664062 202.015625 365.792969 202.164062 C 365.917969 202.316406 366.058594 202.449219 366.214844 202.5625 C 366.371094 202.679688 366.539062 202.777344 366.71875 202.855469 C 366.898438 202.929688 367.085938 202.988281 367.277344 203.019531 C 367.46875 203.054688 367.660156 203.066406 367.855469 203.054688 C 368.050781 203.042969 368.242188 203.007812 368.429688 202.953125 C 368.617188 202.894531 368.792969 202.820312 368.964844 202.722656 C 369.132812 202.625 369.289062 202.507812 369.429688 202.375 C 369.570312 202.242188 369.695312 202.09375 369.804688 201.929688 C 369.910156 201.765625 369.996094 201.59375 370.0625 201.410156 C 370.132812 201.226562 370.175781 201.039062 370.199219 200.84375 C 370.222656 200.652344 370.222656 200.457031 370.199219 200.261719 C 370.175781 200.070312 370.132812 199.878906 370.066406 199.695312 C 370 199.511719 369.914062 199.339844 369.804688 199.175781 C 369.699219 199.015625 369.574219 198.863281 369.433594 198.730469 C 369.292969 198.597656 369.136719 198.480469 368.96875 198.382812 C 368.800781 198.285156 368.621094 198.207031 368.433594 198.152344 C 368.246094 198.09375 368.058594 198.058594 367.863281 198.046875 C 367.667969 198.035156 367.472656 198.046875 367.28125 198.082031 C 367.089844 198.113281 366.902344 198.167969 366.722656 198.246094 L 365.515625 196.664062 C 365.203125 196.246094 364.808594 195.917969 364.339844 195.6875 C 363.871094 195.453125 363.371094 195.335938 362.847656 195.335938 L 358.605469 195.335938 L 358.605469 191.773438 L 368.664062 191.773438 C 368.769531 192.0625 368.925781 192.324219 369.125 192.554688 C 369.328125 192.789062 369.566406 192.980469 369.835938 193.125 C 370.109375 193.269531 370.398438 193.363281 370.703125 193.402344 C 371.007812 193.441406 371.3125 193.425781 371.613281 193.355469 C 371.914062 193.285156 372.191406 193.160156 372.445312 192.988281 C 372.699219 192.8125 372.914062 192.601562 373.09375 192.347656 C 373.269531 192.09375 373.394531 191.820312 373.46875 191.519531 C 373.542969 191.222656 373.5625 190.917969 373.527344 190.613281 C 373.492188 190.304688 373.402344 190.015625 373.257812 189.742188 C 373.117188 189.46875 372.929688 189.230469 372.699219 189.023438 C 372.46875 188.820312 372.207031 188.664062 371.917969 188.554688 C 371.628906 188.445312 371.332031 188.390625 371.023438 188.390625 Z M 367.703125 180.460938 C 367.921875 180.464844 368.105469 180.542969 368.257812 180.699219 C 368.410156 180.855469 368.488281 181.039062 368.488281 181.257812 C 368.488281 181.476562 368.410156 181.664062 368.257812 181.816406 C 368.105469 181.972656 367.921875 182.054688 367.703125 182.058594 C 367.488281 182.054688 367.300781 181.972656 367.148438 181.816406 C 366.996094 181.664062 366.921875 181.476562 366.921875 181.257812 C 366.921875 181.039062 366.996094 180.855469 367.148438 180.699219 C 367.300781 180.542969 367.488281 180.464844 367.703125 180.460938 Z M 359.097656 171.023438 C 359.3125 171.027344 359.5 171.105469 359.652344 171.261719 C 359.804688 171.417969 359.878906 171.601562 359.878906 171.820312 C 359.878906 172.039062 359.804688 172.226562 359.652344 172.378906 C 359.5 172.535156 359.3125 172.617188 359.097656 172.621094 C 358.878906 172.617188 358.695312 172.535156 358.542969 172.378906 C 358.390625 172.226562 358.3125 172.039062 358.3125 171.820312 C 358.3125 171.601562 358.390625 171.417969 358.542969 171.261719 C 358.695312 171.105469 358.878906 171.027344 359.097656 171.023438 Z M 338.992188 171.820312 C 338.996094 171.605469 339.074219 171.417969 339.230469 171.265625 C 339.386719 171.113281 339.574219 171.039062 339.789062 171.039062 C 340.007812 171.039062 340.195312 171.113281 340.351562 171.265625 C 340.503906 171.417969 340.585938 171.605469 340.589844 171.820312 C 340.585938 172.039062 340.503906 172.222656 340.351562 172.375 C 340.195312 172.527344 340.007812 172.605469 339.789062 172.605469 C 339.574219 172.605469 339.386719 172.527344 339.230469 172.375 C 339.074219 172.222656 338.996094 172.039062 338.992188 171.820312 Z M 330.382812 181.257812 C 330.386719 181.042969 330.46875 180.855469 330.625 180.703125 C 330.777344 180.550781 330.964844 180.476562 331.183594 180.476562 C 331.402344 180.476562 331.585938 180.550781 331.742188 180.703125 C 331.898438 180.855469 331.976562 181.042969 331.980469 181.257812 C 331.976562 181.476562 331.898438 181.660156 331.742188 181.8125 C 331.585938 181.964844 331.402344 182.042969 331.183594 182.042969 C 330.964844 182.042969 330.777344 181.964844 330.625 181.8125 C 330.46875 181.660156 330.386719 181.476562 330.382812 181.257812 Z M 327.863281 191.710938 C 327.644531 191.707031 327.460938 191.625 327.308594 191.472656 C 327.15625 191.316406 327.078125 191.128906 327.078125 190.910156 C 327.078125 190.695312 327.15625 190.507812 327.308594 190.351562 C 327.460938 190.195312 327.644531 190.117188 327.863281 190.113281 C 328.082031 190.117188 328.265625 190.195312 328.417969 190.351562 C 328.570312 190.507812 328.648438 190.695312 328.648438 190.910156 C 328.648438 191.128906 328.570312 191.316406 328.417969 191.472656 C 328.265625 191.625 328.082031 191.707031 327.863281 191.710938 Z M 331.183594 201.363281 C 330.964844 201.359375 330.78125 201.28125 330.628906 201.125 C 330.476562 200.96875 330.398438 200.78125 330.398438 200.566406 C 330.398438 200.347656 330.476562 200.160156 330.628906 200.003906 C 330.78125 199.847656 330.964844 199.769531 331.183594 199.765625 C 331.402344 199.769531 331.585938 199.847656 331.738281 200.003906 C 331.890625 200.160156 331.964844 200.347656 331.964844 200.566406 C 331.964844 200.78125 331.890625 200.96875 331.738281 201.125 C 331.585938 201.28125 331.402344 201.359375 331.183594 201.363281 Z M 339.789062 209.140625 C 339.574219 209.136719 339.386719 209.058594 339.234375 208.902344 C 339.082031 208.746094 339.007812 208.558594 339.007812 208.34375 C 339.007812 208.125 339.082031 207.9375 339.234375 207.78125 C 339.386719 207.628906 339.574219 207.546875 339.789062 207.542969 C 340.007812 207.546875 340.191406 207.628906 340.34375 207.78125 C 340.496094 207.9375 340.574219 208.125 340.574219 208.34375 C 340.574219 208.558594 340.496094 208.746094 340.34375 208.902344 C 340.191406 209.058594 340.007812 209.136719 339.789062 209.140625 Z M 349.445312 212.460938 C 349.226562 212.457031 349.039062 212.378906 348.886719 212.222656 C 348.734375 212.066406 348.660156 211.878906 348.660156 211.660156 C 348.660156 211.445312 348.734375 211.257812 348.886719 211.101562 C 349.039062 210.945312 349.226562 210.867188 349.445312 210.863281 C 349.660156 210.867188 349.847656 210.945312 350 211.101562 C 350.152344 211.257812 350.226562 211.445312 350.226562 211.664062 C 350.226562 211.878906 350.152344 212.066406 350 212.222656 C 349.847656 212.378906 349.660156 212.457031 349.445312 212.460938 Z M 359.894531 208.34375 C 359.890625 208.558594 359.8125 208.746094 359.65625 208.898438 C 359.5 209.050781 359.3125 209.125 359.097656 209.125 C 358.878906 209.125 358.691406 209.050781 358.535156 208.898438 C 358.382812 208.746094 358.300781 208.558594 358.296875 208.339844 C 358.300781 208.125 358.382812 207.9375 358.535156 207.785156 C 358.691406 207.632812 358.878906 207.558594 359.097656 207.558594 C 359.3125 207.558594 359.5 207.632812 359.65625 207.785156 C 359.8125 207.9375 359.890625 208.125 359.894531 208.34375 Z M 368.503906 200.566406 C 368.5 200.78125 368.417969 200.96875 368.265625 201.121094 C 368.109375 201.273438 367.921875 201.347656 367.703125 201.347656 C 367.484375 201.347656 367.300781 201.273438 367.144531 201.121094 C 366.988281 200.96875 366.910156 200.78125 366.90625 200.566406 C 366.910156 200.347656 366.988281 200.160156 367.144531 200.007812 C 367.300781 199.855469 367.488281 199.78125 367.703125 199.78125 C 367.921875 199.78125 368.109375 199.855469 368.265625 200.007812 C 368.417969 200.160156 368.5 200.347656 368.503906 200.566406 Z M 356.882812 196.722656 C 356.882812 196.941406 356.804688 197.128906 356.648438 197.285156 C 356.492188 197.441406 356.304688 197.519531 356.082031 197.519531 L 342.804688 197.519531 C 342.582031 197.519531 342.394531 197.441406 342.238281 197.285156 C 342.082031 197.128906 342.003906 196.941406 342.003906 196.722656 L 342.003906 183.441406 C 342.003906 183.222656 342.082031 183.03125 342.238281 182.875 C 342.394531 182.722656 342.582031 182.644531 342.804688 182.640625 L 356.082031 182.640625 C 356.304688 182.644531 356.492188 182.722656 356.648438 182.875 C 356.804688 183.03125 356.882812 183.222656 356.882812 183.441406 Z M 371.023438 191.710938 C 370.804688 191.707031 370.621094 191.625 370.46875 191.472656 C 370.316406 191.316406 370.242188 191.128906 370.242188 190.910156 C 370.242188 190.695312 370.316406 190.507812 370.46875 190.351562 C 370.621094 190.195312 370.804688 190.117188 371.023438 190.113281 C 371.242188 190.117188 371.425781 190.195312 371.578125 190.351562 C 371.730469 190.507812 371.808594 190.695312 371.808594 190.910156 C 371.808594 191.128906 371.730469 191.316406 371.578125 191.472656 C 371.425781 191.625 371.242188 191.707031 371.023438 191.710938 Z M 371.023438 191.710938 " fill-opacity="1" fill-rule="nonzero"/></g><path fill="#ffffff" d="M 349.445312 174.648438 C 349.210938 174.652344 349.007812 174.738281 348.84375 174.90625 C 348.679688 175.074219 348.597656 175.273438 348.597656 175.507812 C 348.597656 175.742188 348.679688 175.945312 348.84375 176.113281 C 349.011719 176.28125 349.210938 176.367188 349.445312 176.371094 C 349.679688 176.367188 349.878906 176.28125 350.042969 176.113281 C 350.207031 175.945312 350.289062 175.742188 350.289062 175.507812 C 350.289062 175.273438 350.207031 175.074219 350.042969 174.90625 C 349.878906 174.738281 349.679688 174.652344 349.445312 174.648438 Z M 349.445312 174.648438 " fill-opacity="1" fill-rule="nonzero"/><g clip-path="url(#6c90842fba)"><path fill="#ffffff" d="M 114.910156 142.117188 L 116.964844 145.683594 L 119.023438 149.25 L 110.785156 149.25 L 112.84375 145.683594 Z M 109.367188 144.097656 L 107.828125 141.429688 L 106.285156 138.757812 L 112.453125 138.757812 L 110.914062 141.429688 Z M 113.714844 132.785156 L 111.707031 136.261719 L 115.734375 136.261719 L 114.730469 134.523438 Z M 115.347656 160.226562 L 128.9375 160.226562 L 131.546875 164.742188 L 142.378906 164.742188 L 122.144531 129.695312 L 116.730469 139.074219 L 116.824219 139.234375 L 122.144531 148.457031 L 124.347656 152.269531 L 109.109375 152.269531 L 101.914062 164.742188 L 112.746094 164.742188 Z M 115.347656 160.226562 " fill-opacity="1" fill-rule="evenodd"/></g><g clip-path="url(#ee71b88b7f)"><path fill="#ffffff" d="M 225.28125 165.300781 L 225.28125 142.566406 L 240.691406 142.566406 L 246.882812 151.84375 L 234.5625 151.84375 L 234.5625 156.023438 L 249.65625 156.023438 L 255.84375 165.300781 Z M 234.847656 138.398438 L 228.671875 129.117188 L 249.667969 129.117188 L 255.84375 138.398438 Z M 234.847656 138.398438 " fill-opacity="1" fill-rule="nonzero"/></g><g clip-path="url(#b5445828a7)"><path fill="#ffffff" d="M 255.855469 129.695312 L 266.25 129.695312 L 266.25 155.480469 L 279.820312 155.480469 L 279.820312 165.878906 L 271.238281 165.878906 L 255.855469 150.492188 Z M 255.855469 129.695312 " fill-opacity="1" fill-rule="evenodd"/></g><g clip-path="url(#483db1bec4)"><path fill="#ffffff" d="M 284.253906 164.714844 L 284.253906 141.980469 L 299.664062 141.980469 L 305.851562 151.257812 L 293.535156 151.257812 L 293.535156 155.4375 L 308.628906 155.4375 L 314.816406 164.714844 Z M 293.820312 137.8125 L 287.644531 128.535156 L 308.636719 128.535156 L 314.8125 137.8125 Z M 293.820312 137.8125 " fill-opacity="1" fill-rule="nonzero"/></g><g clip-path="url(#5c8efb1f0f)"><path fill="#ffffff" d="M 28.003906 190.152344 L 24.0625 190.152344 L 21.429688 194.714844 L 12.363281 210.414062 L 10.882812 212.984375 L 22.734375 212.984375 L 23.585938 211.519531 L 24.089844 210.648438 L 24.722656 209.550781 L 26.695312 206.132812 L 28.679688 202.703125 L 30.65625 206.132812 L 37.242188 206.132812 L 39.21875 209.550781 L 41.195312 212.984375 L 53.050781 212.984375 L 51.566406 210.414062 L 42.511719 194.714844 L 33.445312 179.027344 L 31.964844 176.46875 L 30.484375 179.027344 L 26.027344 186.738281 L 26.570312 187.664062 L 27.179688 188.714844 L 27.695312 189.601562 Z M 28.003906 190.152344 Z M 31.964844 196.992188 L 28.023438 196.992188 L 24.75 202.675781 L 24.234375 203.5625 L 22.753906 206.132812 L 20.777344 209.550781 L 16.808594 209.550781 L 24.382812 196.433594 L 24.382812 196.425781 L 28.003906 190.160156 L 29.175781 192.183594 L 31.152344 195.601562 L 31.160156 195.601562 Z M 28.671875 202.703125 L 31.070312 198.546875 L 31.070312 198.539062 L 31.964844 196.992188 L 35.257812 202.703125 Z M 35.257812 202.703125 L 37.234375 199.289062 L 35.101562 195.601562 L 29.980469 186.730469 L 31.964844 183.300781 L 39.546875 196.425781 L 39.546875 196.433594 L 47.121094 209.550781 L 43.160156 209.550781 L 41.1875 206.132812 L 39.941406 203.972656 L 39.703125 203.5625 L 39.210938 202.703125 Z M 35.257812 202.703125 " fill-opacity="1" fill-rule="evenodd"/></g><g clip-path="url(#4648d0893f)"><path fill="#ff914d" d="M 66.664062 178.765625 L 76.171875 194.585938 L 79.910156 200.808594 L 79.910156 178.773438 L 85.175781 178.773438 L 85.175781 210.964844 L 79.589844 210.964844 L 60.273438 178.765625 L 66.664062 178.765625 M 67.800781 176.753906 L 56.71875 176.753906 L 78.449219 212.976562 L 87.1875 212.976562 L 87.1875 176.761719 L 77.898438 176.761719 L 77.898438 193.550781 Z M 67.800781 176.753906 " fill-opacity="1" fill-rule="nonzero"/></g><g clip-path="url(#0c6fe9d06b)"><path fill="#ffffff" d="M 63.996094 198.585938 L 63.996094 210.964844 L 58.730469 210.964844 L 58.730469 198.589844 L 63.996094 198.585938 M 66.007812 196.574219 L 56.71875 196.574219 L 56.71875 212.976562 L 66.007812 212.976562 Z M 66.007812 196.574219 " fill-opacity="1" fill-rule="nonzero"/></g><g clip-path="url(#0fdaa3e745)"><path fill="#c1ff72" d="M 99.46875 192.050781 L 99.46875 201.246094 C 99.46875 203.703125 101.46875 205.699219 103.925781 205.699219 L 114.421875 205.699219 L 114.421875 197.503906 L 111.300781 197.503906 L 107.800781 192.242188 L 119.6875 192.242188 L 119.6875 210.964844 L 104.078125 210.964844 C 98.632812 210.964844 94.207031 206.539062 94.207031 201.09375 L 94.207031 192.050781 L 99.46875 192.050781 M 101.484375 190.039062 L 92.191406 190.039062 L 92.191406 201.09375 C 92.191406 207.648438 97.523438 212.976562 104.078125 212.976562 L 121.703125 212.976562 L 121.703125 190.226562 L 104.046875 190.226562 L 110.222656 199.519531 L 112.410156 199.519531 L 112.410156 203.6875 L 103.925781 203.6875 C 102.578125 203.6875 101.484375 202.59375 101.484375 201.246094 Z M 101.484375 190.039062 " fill-opacity="1" fill-rule="nonzero"/></g><g clip-path="url(#ee9d8cd33a)"><path fill="#ffffff" d="M 115.527344 178.765625 L 119.03125 184.03125 L 102.84375 184.03125 L 99.300781 178.765625 L 115.527344 178.765625 M 116.605469 176.753906 L 95.515625 176.753906 L 101.773438 186.042969 L 122.789062 186.042969 Z M 116.605469 176.753906 " fill-opacity="1" fill-rule="nonzero"/></g><g clip-path="url(#0eefeac081)"><path fill="#eeb64e" d="M 184.070312 132.21875 L 184.070312 163.382812 L 178.976562 163.382812 L 178.976562 143.453125 L 175.265625 151.359375 L 169.625 163.371094 L 164.125 163.375 L 150.089844 132.21875 L 155.335938 132.21875 L 165.101562 153.734375 L 166.875 157.640625 L 168.648438 153.734375 L 178.417969 132.21875 L 184.070312 132.21875 M 186.019531 130.269531 L 177.160156 130.269531 L 166.875 152.929688 L 156.589844 130.269531 L 147.074219 130.269531 L 162.867188 165.320312 L 170.863281 165.316406 L 177.027344 152.183594 L 177.027344 165.332031 L 186.019531 165.332031 Z M 186.019531 130.269531 " fill-opacity="1" fill-rule="nonzero"/></g><g clip-path="url(#18deaa719e)"><path fill="#ffffff" d="M 149.019531 156.441406 L 154.117188 156.457031 L 154.117188 163.382812 L 149.019531 163.382812 L 149.019531 156.441406 M 147.074219 154.488281 L 147.074219 165.332031 L 156.066406 165.332031 L 156.066406 154.511719 Z M 147.074219 154.488281 " fill-opacity="1" fill-rule="nonzero"/></g><g clip-path="url(#0ad886a33e)"><path fill="#ffffff" d="M 130.007812 212.957031 L 130.007812 190.21875 L 145.417969 190.21875 L 151.605469 199.496094 L 139.289062 199.496094 L 139.289062 203.675781 L 154.382812 203.675781 L 160.570312 212.957031 Z M 139.574219 186.050781 L 133.398438 176.773438 L 154.390625 176.773438 L 160.566406 186.050781 Z M 139.574219 186.050781 " fill-opacity="1" fill-rule="nonzero"/></g><g clip-path="url(#9b5bbbd0a2)"><path fill="#ffffff" d="M 164.328125 176.789062 L 174.726562 176.789062 L 174.726562 202.574219 L 188.292969 202.574219 L 188.292969 212.96875 L 179.710938 212.96875 L 164.328125 197.585938 Z M 164.328125 176.789062 " fill-opacity="1" fill-rule="evenodd"/></g><g clip-path="url(#7da6a9e1ef)"><path fill="#ffffff" d="M 199.746094 188.769531 L 199.746094 212.90625 L 194.378906 207.535156 C 193.730469 206.886719 193.367188 206.007812 193.367188 205.09375 L 193.367188 181.035156 L 198.738281 186.328125 C 199.382812 186.976562 199.75 187.851562 199.75 188.769531 Z M 199.746094 188.769531 " fill-opacity="1" fill-rule="nonzero"/></g><g clip-path="url(#7f36cbc95b)"><path fill="#ff9600" d="M 197.878906 175.570312 L 202.390625 180.082031 L 197.878906 184.59375 L 193.367188 180.082031 Z M 197.878906 175.570312 " fill-opacity="1" fill-rule="nonzero"/></g><g clip-path="url(#44dc8314ea)"><path fill="#ffffff" d="M 322.691406 189.746094 L 322.691406 213.882812 L 317.320312 208.515625 C 316.675781 207.867188 316.3125 206.988281 316.3125 206.074219 L 316.3125 182.015625 L 321.679688 187.308594 C 322.328125 187.953125 322.691406 188.832031 322.691406 189.746094 Z M 322.691406 189.746094 " fill-opacity="1" fill-rule="nonzero"/></g><g clip-path="url(#b6277f9d74)"><path fill="#ff9600" d="M 320.824219 176.550781 L 325.335938 181.0625 L 320.824219 185.574219 L 316.3125 181.0625 Z M 320.824219 176.550781 " fill-opacity="1" fill-rule="nonzero"/></g><g clip-path="url(#5c2add5702)"><path fill="#ff3131" d="M 214.925781 192.050781 L 214.925781 201.246094 C 214.925781 203.703125 216.925781 205.699219 219.378906 205.699219 L 231.011719 205.699219 L 234.492188 210.964844 L 219.53125 210.964844 C 214.089844 210.964844 209.660156 206.539062 209.660156 201.09375 L 209.660156 192.050781 L 214.925781 192.050781 M 216.941406 190.039062 L 207.648438 190.039062 L 207.648438 201.09375 C 207.648438 207.648438 212.980469 212.976562 219.53125 212.976562 L 238.234375 212.976562 L 232.09375 203.6875 L 219.378906 203.6875 C 218.035156 203.6875 216.941406 202.59375 216.941406 201.246094 Z M 216.941406 190.039062 " fill-opacity="1" fill-rule="nonzero"/></g><g clip-path="url(#1b474f8204)"><path fill="#ffffff" d="M 230.980469 178.765625 L 234.488281 184.03125 L 218.300781 184.03125 L 214.757812 178.765625 L 230.980469 178.765625 M 232.058594 176.753906 L 210.972656 176.753906 L 217.230469 186.042969 L 238.246094 186.042969 Z M 232.058594 176.753906 " fill-opacity="1" fill-rule="nonzero"/></g><g clip-path="url(#0917dcf617)"><path fill="#ffffff" d="M 262.792969 203.929688 L 254.796875 211.914062 L 251.054688 211.914062 L 251.054688 186.886719 L 246.535156 186.886719 L 246.535156 185.824219 L 271.816406 185.824219 L 271.816406 176.777344 L 251.070312 176.777344 L 242.011719 185.84375 L 242.007812 212.976562 L 271.820312 212.976562 L 271.820312 203.929688 Z M 262.792969 203.929688 " fill-opacity="1" fill-rule="nonzero"/></g><g clip-path="url(#180d616111)"><path fill="#ffffff" d="M 302.28125 214.277344 L 302.28125 199.914062 L 292.421875 199.914062 L 286.9375 191.140625 L 302.28125 191.140625 L 302.28125 176.78125 L 311.058594 176.78125 L 311.058594 214.277344 Z M 275.574219 214.277344 L 275.574219 176.78125 L 284.347656 176.78125 L 284.347656 214.277344 Z M 275.574219 214.277344 " fill-opacity="1" fill-rule="nonzero"/></g><g fill="#ffffff" fill-opacity="1"><g transform="translate(61.663405, 165.967621)"><g><path d="M 6.296875 0 C 5.410156 0 4.660156 -0.304688 4.046875 -0.921875 C 3.429688 -1.535156 3.125 -2.285156 3.125 -3.171875 L 3.125 -5.390625 C 3.125 -6.304688 3.429688 -7.0625 4.046875 -7.65625 C 4.660156 -8.257812 5.410156 -8.5625 6.296875 -8.5625 L 23.640625 -8.5625 C 24.523438 -8.5625 25.265625 -8.859375 25.859375 -9.453125 C 26.460938 -10.054688 26.765625 -10.800781 26.765625 -11.6875 C 26.765625 -12.53125 26.460938 -13.257812 25.859375 -13.875 C 25.265625 -14.488281 24.523438 -14.796875 23.640625 -14.796875 L 14.234375 -14.796875 C 12.085938 -14.796875 10.175781 -15.273438 8.5 -16.234375 C 6.832031 -17.203125 5.519531 -18.519531 4.5625 -20.1875 C 3.601562 -21.863281 3.125 -23.773438 3.125 -25.921875 L 3.125 -26.71875 C 3.125 -28.863281 3.601562 -30.769531 4.5625 -32.4375 C 5.519531 -34.113281 6.832031 -35.429688 8.5 -36.390625 C 10.175781 -37.359375 12.085938 -37.84375 14.234375 -37.84375 L 33.953125 -37.84375 C 34.867188 -37.84375 35.625 -37.539062 36.21875 -36.9375 C 36.820312 -36.34375 37.125 -35.585938 37.125 -34.671875 L 37.125 -32.453125 C 37.125 -31.566406 36.820312 -30.816406 36.21875 -30.203125 C 35.625 -29.585938 34.867188 -29.28125 33.953125 -29.28125 L 16.546875 -29.28125 C 15.703125 -29.28125 14.976562 -28.976562 14.375 -28.375 C 13.78125 -27.78125 13.484375 -27.039062 13.484375 -26.15625 C 13.484375 -25.300781 13.78125 -24.570312 14.375 -23.96875 C 14.976562 -23.375 15.703125 -23.078125 16.546875 -23.078125 L 26.015625 -23.078125 C 28.160156 -23.078125 30.066406 -22.597656 31.734375 -21.640625 C 33.410156 -20.679688 34.726562 -19.363281 35.6875 -17.6875 C 36.644531 -16.019531 37.125 -14.113281 37.125 -11.96875 L 37.125 -11.109375 C 37.125 -8.972656 36.644531 -7.066406 35.6875 -5.390625 C 34.726562 -3.722656 33.410156 -2.40625 31.734375 -1.4375 C 30.066406 -0.476562 28.160156 0 26.015625 0 Z M 6.296875 0 "/></g></g></g><g fill="#ffffff" fill-opacity="1"><g transform="translate(192.120212, 165.967621)"><g><path d="M 14.703125 0 C 12.460938 0 10.46875 -0.492188 8.71875 -1.484375 C 6.96875 -2.484375 5.597656 -3.859375 4.609375 -5.609375 C 3.617188 -7.359375 3.125 -9.351562 3.125 -11.59375 L 3.125 -34.671875 C 3.125 -35.585938 3.429688 -36.34375 4.046875 -36.9375 C 4.660156 -37.539062 5.410156 -37.84375 6.296875 -37.84375 L 10.3125 -37.84375 C 11.226562 -37.84375 11.984375 -37.539062 12.578125 -36.9375 C 13.179688 -36.34375 13.484375 -35.585938 13.484375 -34.671875 L 13.484375 -11.6875 C 13.484375 -10.800781 13.78125 -10.054688 14.375 -9.453125 C 14.976562 -8.859375 15.703125 -8.5625 16.546875 -8.5625 C 17.429688 -8.5625 18.171875 -8.859375 18.765625 -9.453125 C 19.367188 -10.054688 19.671875 -10.800781 19.671875 -11.6875 L 19.671875 -34.671875 C 19.671875 -35.585938 19.976562 -36.34375 20.59375 -36.9375 C 21.207031 -37.539062 21.957031 -37.84375 22.84375 -37.84375 L 26.859375 -37.84375 C 27.773438 -37.84375 28.53125 -37.539062 29.125 -36.9375 C 29.726562 -36.34375 30.03125 -35.585938 30.03125 -34.671875 L 30.03125 -11.59375 C 30.03125 -9.351562 29.53125 -7.359375 28.53125 -5.609375 C 27.539062 -3.859375 26.171875 -2.484375 24.421875 -1.484375 C 22.671875 -0.492188 20.679688 0 18.453125 0 Z M 14.703125 0 "/></g></g></g></svg>